<svg width="25" height="25" viewBox="0 0 25 25" fill="none" xmlns="http://www.w3.org/2000/svg">
<path d="M7.7832 1.28074C5.27344 1.31004 3.89648 4.02976 3.91113 5.52732C3.98438 7.83689 5.58105 9.40427 7.56348 11.1328C9.29199 12.6367 11.2793 14.2187 12.4902 16.5039C12.4951 16.499 12.4951 16.4941 12.5 16.4892C12.5049 16.4941 12.5049 16.499 12.5098 16.5039C13.7207 14.2187 15.708 12.6367 17.4365 11.1328C19.4189 9.40427 21.0156 7.83689 21.0889 5.52732C21.1035 4.02976 19.7266 1.31004 17.2168 1.28074C15.3613 1.25632 13.1836 2.53562 12.5 4.5864C11.8164 2.53562 9.63867 1.25632 7.7832 1.28074ZM1.12305 18.3105V23.8769H23.877V18.3105H1.12305ZM2.00195 19.1894H22.998V22.998H16.3086V20.0683H2.00195V19.1894Z" fill="#3CFF3C"/>
</svg>
