<svg width="25" height="25" viewBox="0 0 25 25" fill="none" xmlns="http://www.w3.org/2000/svg">
<path d="M16.8793 3.21501C15.1401 3.23943 13.3378 4.103 12.0544 5.92956C12.5463 6.91579 12.7537 8.02136 12.5946 9.15984L11.6897 9.03318C12.0108 6.73498 10.5676 4.56018 8.12671 3.55075C4.74018 2.41501 0.812254 4.41843 0.956688 8.94626C1.16831 15.5741 10.6536 19.4381 11.6745 23.2483C12.0368 21.8965 13.7559 20.3966 15.7119 18.6981C15.5728 18.723 15.4296 18.7363 15.2832 18.7363C13.6593 18.7363 12.4436 17.1473 12.4436 15.309C12.4436 13.4708 13.6594 11.8835 15.2832 11.8835C16.037 11.8835 16.7025 12.2269 17.1997 12.7777H18.5699V11.8468H17.2715V10.9343H20.7825V11.8468H19.4839V12.7777H21.1655V12.9653C21.933 11.7147 22.4051 10.3785 22.3602 8.94626C22.2466 5.3278 19.7459 3.26106 17.0471 3.21501C16.9911 3.21414 16.9352 3.21414 16.8792 3.21501H16.8793ZM15.2832 12.7961C14.2735 12.796 13.356 13.8668 13.356 15.3091C13.356 16.7515 14.2735 17.8238 15.2832 17.8238C15.8486 17.8238 16.3865 17.488 16.7495 16.9388H15.9577C15.4162 16.9388 14.9569 16.7356 14.6713 16.4063C14.3857 16.077 14.2783 15.6548 14.3035 15.2542C14.3288 14.8537 14.4817 14.4617 14.7628 14.1526C15.0439 13.8434 15.4699 13.6277 15.9577 13.6277H16.7129C16.3509 13.1103 15.8302 12.7961 15.2832 12.7961V12.7961ZM17.8009 13.6901V16.7617H20.253V13.6902H17.801L17.8009 13.6901ZM15.9577 14.5401C15.7222 14.5401 15.5666 14.6254 15.4389 14.7659C15.3111 14.9065 15.2271 15.1131 15.2145 15.3122C15.202 15.5113 15.2565 15.6892 15.361 15.8096C15.4654 15.9301 15.6247 16.0264 15.9577 16.0264H16.8884V14.5401L15.9577 14.5401ZM21.1655 14.5478V16.04C21.6765 16.1019 21.9162 16.3907 21.9162 16.9555V18.6279H23.4023V16.9555C23.4023 15.6172 22.73 14.6474 21.1655 14.5477L21.1655 14.5478ZM22.6287 19.5877C22.3733 21.7049 21.4314 21.4277 21.4126 22.7615C21.4044 23.366 21.9707 23.8663 22.673 23.8663C23.3753 23.8663 23.9548 23.3663 23.9548 22.7616C23.9548 21.421 22.9106 21.6967 22.6288 19.5878L22.6287 19.5877Z" fill="#3CFF3C"/>
</svg>
