<svg width="25" height="25" viewBox="0 0 25 25" fill="none" xmlns="http://www.w3.org/2000/svg">
<path d="M4.48113 1.26921C9.24382 8.19597 5.10354 7.67429 3.2051 8.26169C5.09963 10.8456 4.0134 13.2736 1.0321 14.7943C3.59558 15.8239 7.00134 16.2812 3.0842 21.7136C6.96985 19.5152 9.66169 19.3298 9.29172 24.3088C12.1137 21.4526 15.788 20.0133 19.4506 22.4275C19.0327 18.8183 20.0688 17.2378 23.6928 18.7947C19.8071 15.2297 21.4127 13.1129 23.7152 11.0393C19.7361 10.8815 19.1781 7.84119 19.3244 4.20725C16.9229 6.82043 15.101 6.53909 14.2462 1.4259C12.5955 5.17869 10.3724 7.57385 4.48108 1.26917L4.48113 1.26921ZM9.87063 6.60818C10.6568 6.62556 11.1189 7.20378 11.5633 7.81316L8.65784 12.8457C7.66067 12.9426 6.93371 12.6222 6.61746 11.6678L9.52322 6.63489C9.61259 6.61959 9.70294 6.6107 9.79358 6.60828C9.81926 6.60763 9.84495 6.6076 9.87063 6.60818ZM13.2416 7.15491C14.0277 7.1721 14.49 7.75061 14.9344 8.35979L11.6674 14.1718C10.6701 14.2688 9.94324 13.9479 9.62708 12.9938L12.8942 7.18176C12.9835 7.16639 13.0739 7.15741 13.1645 7.15491C13.1902 7.1543 13.2159 7.15426 13.2415 7.15481L13.2416 7.15491ZM16.108 8.71985C16.8942 8.73728 17.3564 9.31545 17.8009 9.92459L14.5809 15.6642C13.5837 15.7609 12.8568 15.4406 12.5407 14.4863L15.7604 8.74656C15.8498 8.73127 15.9402 8.72239 16.0309 8.72C16.0569 8.71938 16.0827 8.71934 16.1081 8.7199L16.108 8.71985ZM18.3708 11.4168C19.1898 11.4216 19.6767 12.0016 20.1459 12.6123L17.4331 17.3109C16.4553 17.3742 15.7312 17.0489 15.3928 16.1329L18.1057 11.4345C18.1935 11.4224 18.2821 11.4165 18.3707 11.4168L18.3708 11.4168ZM6.22805 13.2672L11.3955 15.5875C11.5427 16.6466 11.2597 17.4815 10.3234 17.9757L5.15569 15.6552C4.93557 14.5997 5.55964 13.9226 6.22795 13.2672H6.22805Z" fill="#3CFF3C"/>
</svg>
