<svg width="25" height="25" viewBox="0 0 25 25" fill="none" xmlns="http://www.w3.org/2000/svg">
<path d="M12.5 9.09089H13.6364V7.95452H12.5M10.2273 11.3636H11.3637V10.2273H12.5V9.09089H11.3637V7.95452H10.2273V6.81816H11.3637V7.95452H12.5V6.81816H13.6364V7.95452H14.7728V9.09089H15.9091V7.95452H17.0455V5.6818H18.1818V4.54543H6.81821V5.6818H7.95457V6.81816H9.09094V9.09089H10.2273M11.3637 12.5H12.5V11.3636H11.3637M12.5 13.6363H13.6364V12.5H12.5M21.5909 22.7273H3.40912V19.3182H4.54548V18.1818H5.68185V15.9091H6.81821V13.6363H7.95457V11.3636H6.81821V9.09089H5.68185V6.81816H4.54548V5.6818H3.40912V2.27271H21.5909V5.6818H20.4546V6.81816H19.3182V9.09089H18.1818V11.3636H17.0455V13.6363H18.1818V15.9091H19.3182V18.1818H20.4546V19.3182H21.5909M14.7728 11.3636V9.09089H13.6364V10.2273H12.5V11.3636M18.1818 20.4545V19.3182H17.0455V17.0454H15.9091V14.7727H14.7728V13.6363H13.6364V15.9091H14.7728V18.1818H15.9091V19.3182H9.09094V18.1818H10.2273V15.9091H11.3637V14.7727H12.5V13.6363H10.2273V14.7727H9.09094V17.0454H7.95457V19.3182H6.81821V20.4545H18.1818Z" fill="#3CFF3C"/>
</svg>
