<svg width="25" height="25" viewBox="0 0 25 25" fill="none" xmlns="http://www.w3.org/2000/svg">
<path d="M11.1546 9.67871C10.7035 9.89417 10.3107 10.2147 10.0091 10.6134C9.70748 11.0122 9.50595 11.4774 9.42141 11.9702C9.33687 12.4629 9.37178 12.9687 9.52321 13.4452C9.67465 13.9216 9.93818 14.3548 10.2917 14.7083C10.6452 15.0618 11.0784 15.3254 11.5548 15.4768C12.0313 15.6282 12.5371 15.6632 13.0298 15.5786C13.5226 15.4941 13.9879 15.2925 14.3866 14.991C14.7853 14.6894 15.1059 14.2965 15.3213 13.8454" stroke="#3CFF3C" stroke-width="2" stroke-linecap="round" stroke-linejoin="round"/>
<path d="M14.7291 6.10425C14.0312 5.86206 13.2812 5.72925 12.5 5.72925C8.76038 5.72925 5.72913 8.7605 5.72913 12.5001C5.72913 16.2397 8.76038 19.2709 12.5 19.2709C16.2395 19.2709 19.2708 16.2397 19.2708 12.5001C19.2708 11.7188 19.1385 10.9688 18.8958 10.2709" stroke="#3CFF3C" stroke-width="2" stroke-linecap="round" stroke-linejoin="round"/>
<path d="M17.4833 3.35058C15.955 2.5163 14.2412 2.08049 12.5 2.08339C6.74685 2.08339 2.08331 6.74693 2.08331 12.5001C2.08331 18.2532 6.74685 22.9167 12.5 22.9167C18.2531 22.9167 22.9166 18.2532 22.9166 12.5001C22.9196 10.7591 22.484 9.04544 21.65 7.51724M22.9166 2.08339L12.5 12.5001" stroke="#3CFF3C" stroke-width="2" stroke-linecap="round" stroke-linejoin="round"/>
</svg>
