<svg width="25" height="25" viewBox="0 0 25 25" fill="none" xmlns="http://www.w3.org/2000/svg">
<path d="M12.5521 13.9323L6.38023 20.1041C6.1719 20.3125 5.92468 20.4166 5.63857 20.4166C5.35245 20.4166 5.10488 20.3125 4.89586 20.1041C4.68683 19.8958 4.58266 19.6486 4.58336 19.3625C4.58405 19.0764 4.68822 18.8288 4.89586 18.6198L14.1667 9.37497H11.4584V10.4166C11.4584 10.7118 11.3584 10.9593 11.1584 11.1593C10.9584 11.3593 10.7111 11.459 10.4167 11.4583C10.1222 11.4576 9.87502 11.3576 9.67502 11.1583C9.47502 10.959 9.37502 10.7118 9.37502 10.4166V8.3333C9.37502 8.03816 9.47502 7.79094 9.67502 7.59163C9.87502 7.39233 10.1222 7.29233 10.4167 7.29163H15.4688C15.7466 7.29163 16.0115 7.34372 16.2636 7.44788C16.5156 7.55205 16.7368 7.69962 16.9271 7.89059L20.0521 10.9895C20.3993 11.3368 20.8031 11.6277 21.2636 11.8625C21.724 12.0972 22.2229 12.2663 22.7604 12.3698C23.0556 12.4218 23.3118 12.5566 23.5292 12.7739C23.7465 12.9913 23.8549 13.2472 23.8542 13.5416C23.8535 13.8361 23.732 14.0791 23.4896 14.2708C23.2472 14.4625 22.9781 14.5406 22.6823 14.5052C21.9011 14.401 21.1806 14.1927 20.5209 13.8802C19.8611 13.5677 19.2535 13.1423 18.6979 12.6041L17.6563 11.5104L15.3646 13.802L16.7448 15.1823C16.9879 15.4253 17.0879 15.7163 17.0448 16.0552C17.0018 16.3941 16.8323 16.65 16.5365 16.8229L11.7969 19.5573C11.5538 19.6961 11.2893 19.7309 11.0031 19.6614C10.717 19.592 10.5042 19.4357 10.3646 19.1927C10.225 18.9496 10.1948 18.6847 10.274 18.3979C10.3531 18.1111 10.5136 17.8986 10.7552 17.7604L14.3229 15.7031L12.5521 13.9323ZM4.16669 13.5416C3.87155 13.5416 3.62433 13.4416 3.42502 13.2416C3.22572 13.0416 3.12572 12.7944 3.12502 12.5C3.12433 12.2055 3.22433 11.9583 3.42502 11.7583C3.62572 11.5583 3.87294 11.4583 4.16669 11.4583H7.29169C7.58683 11.4583 7.8344 11.5583 8.0344 11.7583C8.2344 11.9583 8.33405 12.2055 8.33336 12.5C8.33266 12.7944 8.23266 13.042 8.03336 13.2427C7.83405 13.4434 7.58683 13.543 7.29169 13.5416H4.16669ZM2.08336 10.4166C1.78822 10.4166 1.541 10.3166 1.34169 10.1166C1.14239 9.91663 1.04239 9.66941 1.04169 9.37497C1.041 9.08052 1.141 8.8333 1.34169 8.6333C1.54239 8.4333 1.78961 8.3333 2.08336 8.3333H5.20836C5.5035 8.3333 5.75107 8.4333 5.95107 8.6333C6.15106 8.8333 6.25072 9.08052 6.25002 9.37497C6.24933 9.66941 6.14933 9.91698 5.95002 10.1177C5.75072 10.3184 5.5035 10.418 5.20836 10.4166H2.08336ZM20.2865 8.3333C19.7136 8.3333 19.2188 8.12948 18.8021 7.72184C18.3854 7.3142 18.1771 6.82358 18.1771 6.24997C18.1771 5.67636 18.3854 5.18608 18.8021 4.77913C19.2188 4.37219 19.7136 4.16802 20.2865 4.16663C20.8594 4.16524 21.3542 4.36941 21.7709 4.77913C22.1875 5.18886 22.3959 5.67913 22.3959 6.24997C22.3959 6.8208 22.1875 7.31142 21.7709 7.72184C21.3542 8.13226 20.8594 8.33608 20.2865 8.3333ZM4.16669 7.29163C3.87155 7.29163 3.62433 7.19163 3.42502 6.99163C3.22572 6.79163 3.12572 6.54441 3.12502 6.24997C3.12433 5.95552 3.22433 5.7083 3.42502 5.5083C3.62572 5.3083 3.87294 5.2083 4.16669 5.2083H7.29169C7.58683 5.2083 7.8344 5.3083 8.0344 5.5083C8.2344 5.7083 8.33405 5.95552 8.33336 6.24997C8.33266 6.54441 8.23266 6.79198 8.03336 6.99267C7.83405 7.19337 7.58683 7.29302 7.29169 7.29163H4.16669Z" fill="#3CFF3C"/>
</svg>
