<svg width="25" height="25" viewBox="0 0 25 25" fill="none" xmlns="http://www.w3.org/2000/svg">
<path d="M2.34375 17.916L11.7188 23.4375V13.8672L2.34375 8.30078V17.916ZM9.375 14.0625C9.80664 14.0625 10.1562 14.5874 10.1562 15.2344C10.1562 15.8813 9.80664 16.4062 9.375 16.4062C8.94336 16.4062 8.59375 15.8813 8.59375 15.2344C8.59375 14.5874 8.94336 14.0625 9.375 14.0625ZM4.6875 15.625C5.11914 15.625 5.46875 16.1499 5.46875 16.7969C5.46875 17.4438 5.11914 17.9688 4.6875 17.9688C4.25586 17.9688 3.90625 17.4438 3.90625 16.7969C3.90625 16.1499 4.25586 15.625 4.6875 15.625ZM13.2812 13.8672V23.4375L22.6562 17.916V8.30078L13.2812 13.8672ZM15.625 20.7031C15.1934 20.7031 14.8438 20.1782 14.8438 19.5312C14.8438 18.8843 15.1934 18.3594 15.625 18.3594C16.0566 18.3594 16.4062 18.8843 16.4062 19.5312C16.4062 20.1782 16.0566 20.7031 15.625 20.7031ZM15.625 16.4062C15.1934 16.4062 14.8438 15.8813 14.8438 15.2344C14.8438 14.5874 15.1934 14.0625 15.625 14.0625C16.0566 14.0625 16.4062 14.5874 16.4062 15.2344C16.4062 15.8813 16.0566 16.4062 15.625 16.4062ZM20.3125 17.9688C19.8809 17.9688 19.5312 17.4438 19.5312 16.7969C19.5312 16.1499 19.8809 15.625 20.3125 15.625C20.7441 15.625 21.0938 16.1499 21.0938 16.7969C21.0938 17.4438 20.7441 17.9688 20.3125 17.9688ZM20.3125 13.6719C19.8809 13.6719 19.5312 13.147 19.5312 12.5C19.5312 11.853 19.8809 11.3281 20.3125 11.3281C20.7441 11.3281 21.0938 11.853 21.0938 12.5C21.0938 13.147 20.7441 13.6719 20.3125 13.6719ZM12.5 1.5625L3.125 7.03125L12.5 12.5L21.875 7.03125L12.5 1.5625ZM12.5 7.42188C11.853 7.42188 11.3281 7.07227 11.3281 6.64062C11.3281 6.20898 11.853 5.85938 12.5 5.85938C13.147 5.85938 13.6719 6.20898 13.6719 6.64062C13.6719 7.07227 13.147 7.42188 12.5 7.42188Z" fill="#3CFF3C"/>
</svg>
